<svg xmlns="http://www.w3.org/2000/svg" viewBox="0 0 512 512">
  <path fill="#f0f0f0" d="M256 0C114.6 0 0 114.6 0 256s114.6 256 256 256 256-114.6 256-256S397.4 0 256 0z"/>
  <path fill="#e00f2d" d="M256 0v112c-79.4 0-144 64.6-144 144H0c0-141.4 114.6-256 256-256zm144 256H256v144c79.4 0 144-64.6 144-144zM512 256c0-141.4-114.6-256-256-256v112c79.4 0 144 64.6 144 144H512z"/>
  <path fill="#232323" d="M256 112v144H112c0-79.4 64.6-144 144-144zm0 288v-144h144c0 79.4-64.6 144-144 144z"/>
  <path fill="#f0f0f0" d="M256 192c-35.3 0-64 28.7-64 64s28.7 64 64 64 64-28.7 64-64-28.7-64-64-64zm0 88c-13.2 0-24-10.8-24-24s10.8-24 24-24 24 10.8 24 24-10.8 24-24 24z"/>
  <path fill="#232323" d="M256 216c-22.1 0-40 17.9-40 40s17.9 40 40 40 40-17.9 40-40-17.9-40-40-40zm0 64c-13.2 0-24-10.8-24-24s10.8-24 24-24 24 10.8 24 24-10.8 24-24 24z"/>
</svg>
